<svg id="Layer_1" data-name="Layer 1" xmlns="http://www.w3.org/2000/svg" viewBox="0 0 538.1 570.32"><defs><style>.cls-1,.cls-10{fill:#ea4435;}.cls-2,.cls-9{fill:#231f20;}.cls-3{fill:#34a851;}.cls-4{fill:#020201;}.cls-5{fill:#010201;}.cls-6{fill:#547dbf;}.cls-7{fill:#f9a11e;}.cls-11,.cls-8{fill:#f9bc15;}.cls-9{font-size:168.9px;font-family:Montserrat-Bold, Montserrat;font-weight:700;}.cls-10{letter-spacing:-0.02em;}.cls-11{letter-spacing:0em;}</style></defs><path class="cls-1" d="M574.27,269.22c-12.53,13.79-25.37,27.29-38.06,40.92-3.47,3.73-6.9,7.49-10.34,11.24q-8.82,9.36-17.64,18.73-27.74,29.68-55.44,59.41c-.42.44-1.25.74-1,1.63-.79-.26-.88.41-1.14.86a.4.4,0,0,0-.41.41h0l-.47.37-14,15-35.52,38H310.52c22-23.84,44.21-47.41,66.33-71.09q27.54-29.48,55.11-58.92,46.77-50.07,93.49-100.15a32.79,32.79,0,0,1,17.25-10c.39-.08,1.18.15.88-.77h9.66c.27.18.54.68.8,0h2c-.35,1.06.57.7,1,.8,13,3.5,21.48,11.71,24.56,24.82C584.1,251.14,581.69,261.05,574.27,269.22Z" transform="translate(-217.24 -214.84)"/><path class="cls-2" d="M421.23,750.52h0v0Z" transform="translate(-217.24 -214.84)"/><path class="cls-2" d="M450.24,402.41l0,0h0Z" transform="translate(-217.24 -214.84)"/><path class="cls-2" d="M450.65,402l0,0a0,0,0,0,0,0,0Z" transform="translate(-217.24 -214.84)"/><path class="cls-2" d="M451.78,401.18s0,0,0,0h0Z" transform="translate(-217.24 -214.84)"/><path class="cls-2" d="M465.13,702.64h0v0Z" transform="translate(-217.24 -214.84)"/><path class="cls-3" d="M471,727.14a32.77,32.77,0,0,1-48,24.06c-.55-.3-1-.93-1.76-.68,0-.43-.28-.47-.61-.41-2.05-1.83-4.17-3.58-6.13-5.5Q364.23,695.34,314,646q-2.14-2.1-4.17-4.27h93.52q30.26,29.76,60.54,59.47c.14.19.29.37.44.55h0a.42.42,0,0,0,.4.44c0,.26.1.43.39.42,0,.75.58,1.17.92,1.7A32.12,32.12,0,0,1,471,727.14Z" transform="translate(-217.24 -214.84)"/><path class="cls-4" d="M271.91,555.74c.41.41.57.81,0,1.21Z" transform="translate(-217.24 -214.84)"/><path class="cls-4" d="M554,214.84c-.26.68-.53.18-.8,0Z" transform="translate(-217.24 -214.84)"/><path class="cls-5" d="M271.91,537.63c.73.27.32.54,0,.81Z" transform="translate(-217.24 -214.84)"/><path class="cls-6" d="M451.78,401.18c-.26-.91.59-1.21,1-1.66q27.7-29.73,55.44-59.41,8.79-9.39,17.64-18.73c25,3.94,47.42,13.55,67.11,29.56q38.29,31.14,76.76,62.09c4.64,3.75,9.34,7.39,12.49,12.65a32.76,32.76,0,0,1-22.68,49.21,31.46,31.46,0,0,1-25.81-6.7c-23.17-18.67-46.26-37.44-69.44-56.1-6.73-5.41-13.11-11.3-20.49-15.86a75.36,75.36,0,0,0-30.5-10.39,87.75,87.75,0,0,0-41.12,4.43,72.32,72.32,0,0,0-19.05,10.16C452.73,400.73,452.41,401.24,451.78,401.18Z" transform="translate(-217.24 -214.84)"/><path class="cls-7" d="M450.62,402c.27-.46.35-1.17,1.18-.88C451.61,401.72,451.32,402.14,450.62,402Z" transform="translate(-217.24 -214.84)"/><path class="cls-7" d="M450.22,402.43a.4.4,0,0,1,.43-.42C450.78,402.43,450.53,402.46,450.22,402.43Z" transform="translate(-217.24 -214.84)"/><path class="cls-7" d="M449.75,402.8l.49-.39C450.26,402.77,450.1,402.9,449.75,402.8Z" transform="translate(-217.24 -214.84)"/><path class="cls-7" d="M464.36,701.83l-.48-.61C464.15,701.34,464.39,701.48,464.36,701.83Z" transform="translate(-217.24 -214.84)"/><path class="cls-7" d="M464.74,702.23a.44.44,0,0,1-.42-.46C464.62,701.79,464.86,701.85,464.74,702.23Z" transform="translate(-217.24 -214.84)"/><path class="cls-7" d="M465.13,702.64c-.31,0-.41-.16-.41-.43C465.05,702.16,465.33,702.17,465.13,702.64Z" transform="translate(-217.24 -214.84)"/><path class="cls-7" d="M421.25,750.54c-.34,0-.5-.15-.61-.43C421,750.05,421.26,750.09,421.25,750.54Z" transform="translate(-217.24 -214.84)"/><path class="cls-8" d="M504.94,785.16c-.17-1.19-1.15-.67-1.72-.7A136.09,136.09,0,0,1,422.51,752c-.48-.41-1.16-.7-1.28-1.45.78-.26,1.23.38,1.78.68a32.77,32.77,0,0,0,48-24.06,32.12,32.12,0,0,0-5-22.8c-.34-.54-1-1-.92-1.72,1.66.42,2.69,1.78,4,2.72A70.42,70.42,0,0,0,515.34,719c18.45-1,34.27-8.23,47.37-21.36,18.44-18.46,37-36.84,55.37-55.32a33.18,33.18,0,0,1,27.09-10.12c13.68,1,26.45,12.58,28.81,26.27,2,11.65-1.11,21.73-9.49,30.11q-28.17,28.17-56.38,56.3c-20.31,20.17-44.66,32.66-72.79,37.76a112.34,112.34,0,0,1-15.75,1.8c-.58,0-1.54-.44-1.75.7Z" transform="translate(-217.24 -214.84)"/><text class="cls-9" transform="translate(0 383.81)">I<tspan class="cls-6" x="55.4" y="0">n</tspan><tspan class="cls-10" x="172.1" y="0">t</tspan><tspan class="cls-3" x="242.7" y="0">e</tspan><tspan class="cls-11" x="349.27" y="0">r</tspan><tspan x="421.39" y="0">n</tspan></text></svg>